<svg width="62" height="25" viewBox="0 0 62 25" fill="none" xmlns="http://www.w3.org/2000/svg">
<path d="M21 21.5L15.8033 16.3033M15.8033 16.3033C17.1605 14.9461 18 13.0711 18 11C18 6.85786 14.6421 3.5 10.5 3.5C6.35786 3.5 3 6.85786 3 11C3 15.1421 6.35786 18.5 10.5 18.5C12.5711 18.5 14.4461 17.6605 15.8033 16.3033Z" stroke="white" stroke-width="1.5" stroke-linecap="round" stroke-linejoin="round"/>
<path d="M54.5112 13.3356L49.9998 17.5L45.4885 13.3356C42.9754 14.9429 41.2915 17.8433 41.2915 21.1667H58.7082C58.7082 17.8433 57.0243 14.9429 54.5112 13.3356Z" fill="white"/>
<path d="M50 13.8333C51.6271 13.8333 53.0841 13.1229 54.0911 12C54.9642 11.0265 55.5 9.74409 55.5 8.33334C55.5 5.29597 53.0374 2.83334 50 2.83334C46.9626 2.83334 44.5 5.29597 44.5 8.33334C44.5 9.74409 45.0358 11.0265 45.9089 12C46.9159 13.1229 48.3729 13.8333 50 13.8333Z" fill="white"/>
</svg>
